<?xml version="1.0" encoding="utf-8"?><svg xmlns="http://www.w3.org/2000/svg" xmlns:xlink="http://www.w3.org/1999/xlink"><symbol viewBox="0 0 24 24" id="arrow-down" xmlns="http://www.w3.org/2000/svg"><path d="M7.41 8.29688L12 12.8769L16.59 8.29688L18 9.70687L12 15.7069L6 9.70687L7.41 8.29688Z"/></symbol><symbol viewBox="0 0 16 16" id="arrow_forward" xmlns="http://www.w3.org/2000/svg"><path d="M8.00033 2.66602L7.06033 3.60602L10.7803 7.33268H2.66699V8.66602H10.7803L7.06033 12.3927L8.00033 13.3327L13.3337 7.99935L8.00033 2.66602Z"/></symbol><symbol viewBox="0 0 24 24" id="bag" xmlns="http://www.w3.org/2000/svg"><path d="M18 6H16C16 3.79 14.21 2 12 2C9.79 2 8 3.79 8 6H6C4.9 6 4 6.9 4 8V20C4 21.1 4.9 22 6 22H18C19.1 22 20 21.1 20 20V8C20 6.9 19.1 6 18 6ZM12 4C13.1 4 14 4.9 14 6H10C10 4.9 10.9 4 12 4ZM18 20H6V8H8V10C8 10.55 8.45 11 9 11C9.55 11 10 10.55 10 10V8H14V10C14 10.55 14.45 11 15 11C15.55 11 16 10.55 16 10V8H18V20Z"/></symbol><symbol viewBox="0 0 25 24" id="close" xmlns="http://www.w3.org/2000/svg"><path d="M19.5 6.41L18.09 5L12.5 10.59L6.91 5L5.5 6.41L11.09 12L5.5 17.59L6.91 19L12.5 13.41L18.09 19L19.5 17.59L13.91 12L19.5 6.41Z"/></symbol><symbol viewBox="0 0 24 24" id="facebook" xmlns="http://www.w3.org/2000/svg"><rect width="24" height="24" rx="12"/><path d="M17.2031 12L16.6711 15.4688H13.875V23.8547C13.2633 23.9508 12.6375 24 12 24C11.3625 24 10.7367 23.9508 10.125 23.8547V15.4688H7.07812V12H10.125V9.35625C10.125 6.34922 11.9156 4.6875 14.6578 4.6875C15.9703 4.6875 17.3438 4.92188 17.3438 4.92188V7.875H15.8297C14.3391 7.875 13.875 8.80078 13.875 9.75V12H17.2031Z"/></symbol><symbol viewBox="0 0 24 24" id="favorite" xmlns="http://www.w3.org/2000/svg"><path d="M11.2232 19.1147L11.2217 19.1134C8.62662 16.7602 6.55384 14.878 5.1178 13.1223C3.69324 11.3807 3 9.88574 3 8.32422C3 5.7965 4.97228 3.82422 7.5 3.82422C8.93721 3.82422 10.3322 4.49815 11.2386 5.56256L12 6.45662L12.7614 5.56256C13.6678 4.49815 15.0628 3.82422 16.5 3.82422C19.0277 3.82422 21 5.7965 21 8.32422C21 9.88575 20.3068 11.3807 18.882 13.1239C17.4459 14.8808 15.3734 16.7651 12.7786 19.1232C12.7782 19.1235 12.7778 19.1238 12.7775 19.1241L12.0026 19.8242L11.2232 19.1147Z" stroke-width="2"/></symbol><symbol viewBox="0 0 24 24" id="instagram" xmlns="http://www.w3.org/2000/svg"><path d="M23.933 7.05204C23.8754 5.77422 23.669 4.89992 23.3761 4.13611C23.0689 3.34828 22.6608 2.67574 21.9934 2.01281C21.3261 1.34988 20.6588 0.931946 19.8714 0.629304C19.1081 0.331465 18.2343 0.129704 16.9572 0.0720576C15.6754 0.0144115 15.2673 0 12.0122 0C8.7524 0 8.34431 0.0144115 7.06726 0.0720576C5.7902 0.129704 4.91643 0.336269 4.15308 0.629304C3.36092 0.93675 2.68878 1.34508 2.02625 2.01281C1.36372 2.68054 0.946035 3.34828 0.643574 4.13611C0.350716 4.89992 0.144274 5.77422 0.0866628 7.05204C0.0290513 8.33467 0.0146484 8.743 0.0146484 12C0.0146484 15.2618 0.0290513 15.6701 0.0866628 16.948C0.144274 18.2258 0.350716 19.1001 0.643574 19.8639C0.950836 20.6517 1.35892 21.3243 2.02625 21.9872C2.68878 22.6549 3.36092 23.0681 4.14827 23.3707C4.91163 23.6685 5.7854 23.8703 7.06246 23.9279C8.34431 23.9856 8.7524 24 12.0074 24C15.2673 24 15.6754 23.9856 16.9524 23.9279C18.2295 23.8703 19.1033 23.6637 19.8666 23.3707C20.654 23.0633 21.3261 22.6549 21.9886 21.9872C22.6512 21.3195 23.0689 20.6517 23.3713 19.8639C23.669 19.1001 23.8706 18.2258 23.9282 16.948C23.9858 15.6653 24.0002 15.257 24.0002 12C24.0002 8.743 23.9906 8.32986 23.933 7.05204ZM21.7774 16.8519C21.7246 18.024 21.5278 18.6629 21.3645 19.0809C21.1485 19.6381 20.8844 20.0416 20.4619 20.4644C20.0395 20.8871 19.641 21.1417 19.0793 21.3675C18.6568 21.5308 18.0182 21.7278 16.8516 21.7806C15.589 21.8383 15.2097 21.8527 12.0026 21.8527C8.7956 21.8527 8.41633 21.8383 7.15368 21.7806C5.98224 21.7278 5.34371 21.5308 4.92603 21.3675C4.36912 21.1513 3.96584 20.8871 3.54335 20.4644C3.12087 20.0416 2.86642 19.6429 2.64077 19.0809C2.47754 18.6581 2.2807 18.0192 2.22789 16.8519C2.17028 15.5885 2.15588 15.209 2.15588 12C2.15588 8.79103 2.17028 8.41153 2.22789 7.14812C2.2807 5.97598 2.47754 5.33707 2.64077 4.91914C2.85682 4.36189 3.12087 3.95837 3.54335 3.53563C3.96584 3.11289 4.36432 2.85829 4.92603 2.63251C5.34852 2.46918 5.98704 2.27222 7.15368 2.21938C8.41633 2.16173 8.7956 2.14732 12.0026 2.14732C15.2097 2.14732 15.589 2.16173 16.8516 2.21938C18.0231 2.27222 18.6616 2.46918 19.0793 2.63251C19.6362 2.84868 20.0395 3.11289 20.4619 3.53563C20.8844 3.95837 21.1389 4.35709 21.3645 4.91914C21.5278 5.34187 21.7246 5.98079 21.7774 7.14812C21.835 8.41153 21.8494 8.79103 21.8494 12C21.8494 15.209 21.8302 15.5885 21.7774 16.8519Z"/><path d="M12.0023 5.83203C8.59364 5.83203 5.83789 8.59424 5.83789 12.0002C5.83789 15.4109 8.59844 18.1683 12.0023 18.1683C15.4062 18.1683 18.1668 15.4013 18.1668 12.0002C18.1668 8.58944 15.411 5.83203 12.0023 5.83203ZM12.0023 16.0018C9.79388 16.0018 8.00312 14.2099 8.00312 12.0002C8.00312 9.7904 9.79388 7.99856 12.0023 7.99856C14.2108 7.99856 16.0015 9.7904 16.0015 12.0002C16.0015 14.2099 14.2108 16.0018 12.0023 16.0018Z"/><path d="M18.4071 7.03465C19.2025 7.03465 19.8474 6.38942 19.8474 5.5935C19.8474 4.79757 19.2025 4.15234 18.4071 4.15234C17.6116 4.15234 16.9668 4.79757 16.9668 5.5935C16.9668 6.38942 17.6116 7.03465 18.4071 7.03465Z"/><path d="M0 12C0 15.2618 0.0144029 15.6701 0.0720144 16.948C0.129626 18.2258 0.336067 19.1001 0.628926 19.8639C0.936187 20.6517 1.34427 21.3243 2.0116 21.9872C2.67413 22.6501 3.34627 23.0681 4.13363 23.3707C4.89698 23.6685 5.77075 23.8703 7.04781 23.9279C8.32967 23.9856 8.73775 24 11.9928 24C15.2527 24 15.6607 23.9856 16.9378 23.9279C18.2148 23.8703 19.0886 23.6637 19.852 23.3707C20.6393 23.0633 21.3115 22.6549 21.974 21.9872C22.6365 21.3243 23.0542 20.6517 23.3567 19.8639C23.6543 19.1001 23.856 18.2258 23.9136 16.948C23.9712 15.6653 23.9856 15.257 23.9856 12C23.9856 8.73819 23.9712 8.32986 23.9136 7.05204C23.856 5.77422 23.6495 4.89992 23.3567 4.13611C23.0494 3.34828 22.6413 2.67574 21.974 2.01281C21.3163 1.34508 20.6441 0.931946 19.8568 0.629304C19.0934 0.331465 18.2196 0.129704 16.9426 0.0720576C15.6607 0.0144115 15.2527 0 11.9976 0C8.73775 0 8.32967 0.0144115 7.05261 0.0720576C5.77555 0.129704 4.90178 0.336269 4.13843 0.629304C3.35107 0.93675 2.67894 1.34508 2.0164 2.01281C1.35387 2.68054 0.936187 3.34828 0.633727 4.13611C0.336067 4.89992 0.129626 5.77422 0.0720144 7.05204C0.0144029 8.32986 0 8.73819 0 12ZM2.16523 12C2.16523 8.79584 2.17964 8.41153 2.23725 7.14812C2.29006 5.97598 2.4869 5.33707 2.65013 4.91914C2.86617 4.36189 3.13023 3.95837 3.55271 3.53563C3.97519 3.11289 4.37367 2.85829 4.93539 2.63251C5.35787 2.46918 5.9964 2.27222 7.16303 2.21938C8.42568 2.16173 8.80496 2.14732 12.012 2.14732C15.219 2.14732 15.5983 2.16173 16.861 2.21938C18.0324 2.27222 18.6709 2.46918 19.0886 2.63251C19.6455 2.84868 20.0488 3.11289 20.4713 3.53563C20.8938 3.95837 21.1482 4.35709 21.3739 4.91914C21.5371 5.34187 21.7339 5.98079 21.7868 7.14812C21.8444 8.41153 21.8588 8.79103 21.8588 12C21.8588 15.209 21.8444 15.5885 21.7868 16.8519C21.7339 18.024 21.5371 18.6629 21.3739 19.0809C21.1578 19.6381 20.8938 20.0416 20.4713 20.4644C20.0488 20.8871 19.6503 21.1417 19.0886 21.3675C18.6661 21.5308 18.0276 21.7278 16.861 21.7806C15.5983 21.8383 15.219 21.8527 12.012 21.8527C8.80496 21.8527 8.42568 21.8383 7.16303 21.7806C5.9916 21.7278 5.35307 21.5308 4.93539 21.3675C4.37848 21.1513 3.97519 20.8871 3.55271 20.4644C3.13023 20.0416 2.87578 19.6429 2.65013 19.0809C2.4869 18.6581 2.29006 18.0192 2.23725 16.8519C2.17483 15.5885 2.16523 15.2042 2.16523 12Z"/></symbol><symbol viewBox="0 0 25 24" id="menu" xmlns="http://www.w3.org/2000/svg"><path d="M3.5 18H21.5V16H3.5V18ZM3.5 13H21.5V11H3.5V13ZM3.5 6V8H21.5V6H3.5Z"/></symbol><symbol viewBox="0 0 24 24" id="person" xmlns="http://www.w3.org/2000/svg"><path d="M18.39 15.06C16.71 14.2 14.53 13.5 12 13.5C9.47 13.5 7.29 14.2 5.61 15.06C4.61 15.57 4 16.6 4 17.72V20.5H20V17.72C20 16.6 19.39 15.57 18.39 15.06ZM18 18.5H6V17.72C6 17.34 6.2 17 6.52 16.84C7.71 16.23 9.63 15.5 12 15.5C14.37 15.5 16.29 16.23 17.48 16.84C17.8 17 18 17.34 18 17.72V18.5Z"/><path d="M12 12.5C14.21 12.5 16 10.71 16 8.5C16 7.13 16 5 16 5C16 4.17 15.33 3.5 14.5 3.5C13.98 3.5 13.52 3.77 13.25 4.17C12.98 3.77 12.52 3.5 12 3.5C11.48 3.5 11.02 3.77 10.75 4.17C10.48 3.77 10.02 3.5 9.5 3.5C8.67 3.5 8 4.17 8 5C8 5 8 7.12 8 8.5C8 10.71 9.79 12.5 12 12.5ZM10 6H14V8.5C14 9.6 13.1 10.5 12 10.5C10.9 10.5 10 9.6 10 8.5V6Z"/></symbol><symbol viewBox="0 0 24 24" id="pinterest" xmlns="http://www.w3.org/2000/svg"><path d="M11.9951 0C5.36076 0 0 5.37062 0 11.9951C0 17.0794 3.15919 21.4233 7.62156 23.1707C7.51296 22.2229 7.42411 20.7618 7.66104 19.7252C7.87824 18.7873 9.06293 13.7622 9.06293 13.7622C9.06293 13.7622 8.70754 13.0416 8.70754 11.9852C8.70754 10.3167 9.67502 9.07281 10.8795 9.07281C11.9062 9.07281 12.3998 9.84286 12.3998 10.761C12.3998 11.7877 11.7482 13.3278 11.4027 14.7594C11.1164 15.9539 12.0049 16.9313 13.1798 16.9313C15.3122 16.9313 16.9511 14.6804 16.9511 11.4422C16.9511 8.56932 14.8877 6.5652 11.9358 6.5652C8.51995 6.5652 6.51583 9.12216 6.51583 11.768C6.51583 12.7947 6.91073 13.9004 7.40436 14.5027C7.5031 14.6211 7.51296 14.7297 7.48334 14.8482C7.3945 15.2234 7.18716 16.0428 7.14768 16.2106C7.09831 16.4278 6.96996 16.4772 6.7429 16.3686C5.26202 15.6577 4.33402 13.4661 4.33402 11.7088C4.33402 7.92761 7.07856 4.45248 12.2616 4.45248C16.4179 4.45248 19.6561 7.41422 19.6561 11.383C19.6561 15.5195 17.0498 18.8466 13.4364 18.8466C12.2221 18.8466 11.0769 18.2147 10.6919 17.4644C10.6919 17.4644 10.0897 19.7548 9.94159 20.3176C9.67502 21.3641 8.94446 22.6672 8.45083 23.4669C9.57631 23.8124 10.761 24 12.0049 24C18.6294 24 24 18.6294 24 12.0049C23.9901 5.37062 18.6195 0 11.9951 0Z"/></symbol><symbol viewBox="0 0 24 24" id="search" xmlns="http://www.w3.org/2000/svg"><path d="M15.7549 14.2539H14.9649L14.6849 13.9839C15.6649 12.8439 16.2549 11.3639 16.2549 9.75391C16.2549 6.16391 13.3449 3.25391 9.75488 3.25391C6.16488 3.25391 3.25488 6.16391 3.25488 9.75391C3.25488 13.3439 6.16488 16.2539 9.75488 16.2539C11.3649 16.2539 12.8449 15.6639 13.9849 14.6839L14.2549 14.9639V15.7539L19.2549 20.7439L20.7449 19.2539L15.7549 14.2539ZM9.75488 14.2539C7.26488 14.2539 5.25488 12.2439 5.25488 9.75391C5.25488 7.26391 7.26488 5.25391 9.75488 5.25391C12.2449 5.25391 14.2549 7.26391 14.2549 9.75391C14.2549 12.2439 12.2449 14.2539 9.75488 14.2539Z"/></symbol><symbol viewBox="0 0 24 24" id="tiktok" xmlns="http://www.w3.org/2000/svg"><path d="M16.0426 7.7043C17.5863 8.81139 19.4768 9.46282 21.5186 9.46282V6.35875C20.3789 6.11511 19.3699 5.51738 18.6112 4.68597C17.3127 3.87276 16.3771 2.53118 16.1028 0.960938H13.2402V16.7116C13.2337 18.5478 11.7489 20.0346 9.91773 20.0346C8.83868 20.0346 7.88006 19.5184 7.27294 18.7188C6.1888 18.1696 5.44534 17.0423 5.44534 15.7404C5.44534 13.8991 6.93267 12.4062 8.76772 12.4062C9.11931 12.4062 9.45819 12.4611 9.77606 12.5624V9.42436C5.83532 9.50607 2.66602 12.7375 2.66602 16.7117C2.66602 18.6955 3.45525 20.494 4.73618 21.8081C5.89176 22.5868 7.28286 23.041 8.77954 23.041C12.7908 23.041 16.0427 19.7775 16.0427 15.7518V7.7043H16.0426Z"/><path d="M21.5182 6.3578V5.51848C20.4904 5.52005 19.4828 5.23119 18.6108 4.68493C19.3827 5.53306 20.3992 6.11787 21.5182 6.3578ZM16.1023 0.959983C16.0762 0.809911 16.0561 0.658851 16.0421 0.507214V0H12.0896V15.7508C12.0833 17.5868 10.5985 19.0736 8.76726 19.0736C8.22962 19.0736 7.72201 18.9455 7.27247 18.7179C7.87959 19.5174 8.83822 20.0335 9.91727 20.0335C11.7482 20.0335 13.2333 18.5469 13.2397 16.7107V0.959983H16.1023ZM9.77576 9.4234V8.52989C9.4455 8.48459 9.11253 8.46186 8.77915 8.46202C4.76754 8.46194 1.51562 11.7254 1.51562 15.7508C1.51562 18.2745 2.79368 20.4987 4.73579 21.807C3.45486 20.493 2.66563 18.6944 2.66563 16.7106C2.66563 12.7365 5.83486 9.50511 9.77576 9.4234Z"/></symbol></svg>