<?xml version="1.0" encoding="utf-8"?><svg viewBox="0 0 25 24" xmlns="http://www.w3.org/2000/svg" xmlns:xlink="http://www.w3.org/1999/xlink"><style>:root>svg{display:none}:root>svg:target{display:block}</style><svg fill="none" viewBox="0 0 24 24" id="arrow-down" xmlns="http://www.w3.org/2000/svg">
    <path d="m7.41 8.297 4.59 4.58 4.59-4.58L18 9.707l-6 6-6-6 1.41-1.41Z" fill="#0C0C0C"/>
</svg><svg fill="currentColor" class="bbi bbi-arrow-up" viewBox="0 0 16 16" id="arrow-up" xmlns="http://www.w3.org/2000/svg">
    <path fill-rule="evenodd" d="M8 15a.5.5 0 0 0 .5-.5V2.707l3.146 3.147a.5.5 0 0 0 .708-.708l-4-4a.5.5 0 0 0-.708 0l-4 4a.5.5 0 1 0 .708.708L7.5 2.707V14.5a.5.5 0 0 0 .5.5"/>
</svg><svg fill="none" viewBox="0 0 16 16" id="arrow_forward" xmlns="http://www.w3.org/2000/svg">
    <path d="m8 2.666-.94.94 3.72 3.727H2.667v1.333h8.113l-3.72 3.727.94.94 5.334-5.334L8 2.666Z" fill="#D1D9CF"/>
</svg><svg fill="none" viewBox="0 0 24 24" id="bag" xmlns="http://www.w3.org/2000/svg">
    <path d="M18 6h-2c0-2.21-1.79-4-4-4S8 3.79 8 6H6c-1.1 0-2 .9-2 2v12c0 1.1.9 2 2 2h12c1.1 0 2-.9 2-2V8c0-1.1-.9-2-2-2Zm-6-2c1.1 0 2 .9 2 2h-4c0-1.1.9-2 2-2Zm6 16H6V8h2v2c0 .55.45 1 1 1s1-.45 1-1V8h4v2c0 .55.45 1 1 1s1-.45 1-1V8h2v12Z" fill="#202020"/>
</svg><svg fill="none" viewBox="0 0 25 24" id="close" xmlns="http://www.w3.org/2000/svg">
    <path d="M19.5 6.41 18.09 5l-5.59 5.59L6.91 5 5.5 6.41 11.09 12 5.5 17.59 6.91 19l5.59-5.59L18.09 19l1.41-1.41L13.91 12l5.59-5.59Z" fill="#0C0C0C"/>
</svg><svg fill="none" viewBox="0 0 24 24" id="facebook" xmlns="http://www.w3.org/2000/svg">
    <rect width="24" height="24" rx="12" fill="#fff"/>
    <path d="m17.203 12-.532 3.469h-2.796v8.386a12.071 12.071 0 0 1-3.75 0v-8.386H7.078V12h3.047V9.356c0-3.007 1.79-4.668 4.533-4.668 1.312 0 2.686.234 2.686.234v2.953H15.83c-1.49 0-1.955.926-1.955 1.875V12h3.328Z" fill="#404040"/>
</svg><svg fill="none" viewBox="0 0 24 24" id="favorite" xmlns="http://www.w3.org/2000/svg">
    <path d="m11.223 19.115-.001-.002c-2.595-2.353-4.668-4.235-6.104-5.99C3.693 11.38 3 9.885 3 8.323c0-2.527 1.972-4.5 4.5-4.5 1.437 0 2.832.674 3.739 1.739l.761.894.761-.894c.907-1.065 2.302-1.739 3.739-1.739 2.528 0 4.5 1.973 4.5 4.5 0 1.562-.693 3.057-2.118 4.8-1.436 1.757-3.509 3.641-6.103 6h-.002l-.774.7-.78-.71Z" fill="#fff" stroke="#202020" stroke-width="2"/>
</svg><svg fill="none" viewBox="0 0 24 24" id="instagram" xmlns="http://www.w3.org/2000/svg">
    <path d="M23.933 7.052c-.058-1.278-.264-2.152-.557-2.916a5.85 5.85 0 0 0-1.383-2.123A5.886 5.886 0 0 0 19.871.629c-.763-.298-1.637-.5-2.914-.557C15.675.014 15.267 0 12.012 0c-3.26 0-3.668.014-4.945.072C5.79.13 4.917.336 4.153.63a5.824 5.824 0 0 0-2.127 1.384A5.891 5.891 0 0 0 .644 4.136C.35 4.9.144 5.774.087 7.052.029 8.335.015 8.743.015 12c0 3.262.014 3.67.072 4.948.057 1.278.264 2.152.557 2.916a5.85 5.85 0 0 0 1.382 2.123 5.785 5.785 0 0 0 2.122 1.384c.764.298 1.637.5 2.914.557 1.282.058 1.69.072 4.945.072 3.26 0 3.668-.014 4.945-.072 1.277-.058 2.151-.264 2.915-.557a5.846 5.846 0 0 0 2.122-1.384 5.89 5.89 0 0 0 1.382-2.123c.298-.764.5-1.638.557-2.916.058-1.283.072-1.691.072-4.948 0-3.257-.01-3.67-.067-4.948Zm-2.156 9.8c-.052 1.172-.25 1.81-.413 2.229-.216.557-.48.96-.902 1.383-.422.423-.821.678-1.383.904-.422.163-1.06.36-2.227.413-1.263.057-1.642.072-4.85.072-3.206 0-3.586-.015-4.848-.072-1.172-.053-1.81-.25-2.228-.413a3.736 3.736 0 0 1-1.383-.904 3.82 3.82 0 0 1-.902-1.383c-.163-.423-.36-1.062-.413-2.23C2.17 15.59 2.156 15.21 2.156 12s.014-3.588.072-4.852c.053-1.172.25-1.81.413-2.229.216-.557.48-.96.902-1.383a3.817 3.817 0 0 1 1.383-.903c.423-.164 1.061-.36 2.228-.414 1.262-.057 1.642-.072 4.849-.072 3.207 0 3.586.015 4.849.072 1.171.053 1.81.25 2.227.414.557.216.96.48 1.383.903.422.422.677.821.902 1.383.164.423.36 1.062.413 2.23.058 1.263.072 1.642.072 4.851s-.019 3.588-.072 4.852Z" fill="#fff"/>
    <path d="M12.002 5.832A6.164 6.164 0 0 0 5.838 12a6.164 6.164 0 1 0 12.329 0 6.161 6.161 0 0 0-6.165-6.168Zm0 10.17A4 4 0 0 1 8.003 12a4 4 0 0 1 4-4.001A4 4 0 0 1 16 12a4 4 0 0 1-3.999 4.002ZM18.407 7.035a1.44 1.44 0 1 0 0-2.882 1.44 1.44 0 0 0 0 2.882Z" fill="#fff"/>
    <path d="M0 12c0 3.262.014 3.67.072 4.948.058 1.278.264 2.152.557 2.916a5.85 5.85 0 0 0 1.383 2.123 5.846 5.846 0 0 0 2.122 1.384c.763.298 1.637.5 2.914.557 1.282.058 1.69.072 4.945.072 3.26 0 3.668-.014 4.945-.072 1.277-.058 2.15-.264 2.914-.557a5.847 5.847 0 0 0 2.122-1.384 5.852 5.852 0 0 0 1.383-2.123c.297-.764.499-1.638.557-2.916.057-1.283.072-1.691.072-4.948 0-3.262-.015-3.67-.072-4.948-.058-1.278-.265-2.152-.557-2.916a5.852 5.852 0 0 0-1.383-2.123A5.73 5.73 0 0 0 19.857.629c-.764-.298-1.637-.5-2.914-.557C15.66.014 15.253 0 11.998 0 8.738 0 8.33.014 7.053.072 5.776.13 4.902.336 4.138.63a5.847 5.847 0 0 0-2.122 1.384A5.891 5.891 0 0 0 .634 4.136C.336 4.9.13 5.774.072 7.052.014 8.33 0 8.738 0 12Zm2.165 0c0-3.204.015-3.588.072-4.852.053-1.172.25-1.81.413-2.229.216-.557.48-.96.903-1.383a3.817 3.817 0 0 1 1.382-.903c.423-.164 1.061-.36 2.228-.414 1.263-.057 1.642-.072 4.849-.072 3.207 0 3.586.015 4.849.072 1.171.053 1.81.25 2.228.414.556.216.96.48 1.382.903.423.422.677.821.903 1.383.163.423.36 1.062.413 2.23.057 1.263.072 1.642.072 4.851s-.015 3.588-.072 4.852c-.053 1.172-.25 1.81-.413 2.229a3.74 3.74 0 0 1-.903 1.383 3.818 3.818 0 0 1-1.382.904c-.423.163-1.061.36-2.228.413-1.263.057-1.642.072-4.849.072-3.207 0-3.586-.015-4.849-.072-1.171-.053-1.81-.25-2.228-.413a3.736 3.736 0 0 1-1.382-.904 3.82 3.82 0 0 1-.903-1.383c-.163-.423-.36-1.062-.413-2.23-.062-1.262-.072-1.647-.072-4.851Z" fill="#fff"/>
</svg><svg fill="none" viewBox="0 0 25 24" id="menu" xmlns="http://www.w3.org/2000/svg">
    <path d="M3.5 18h18v-2h-18v2Zm0-5h18v-2h-18v2Zm0-7v2h18V6h-18Z" fill="#0C0C0C"/>
</svg><svg fill="none" viewBox="0 0 24 24" id="person" xmlns="http://www.w3.org/2000/svg">
    <path d="M18.39 15.06c-1.68-.86-3.86-1.56-6.39-1.56s-4.71.7-6.39 1.56A2.97 2.97 0 0 0 4 17.72v2.78h16v-2.78c0-1.12-.61-2.15-1.61-2.66ZM18 18.5H6v-.78c0-.38.2-.72.52-.88 1.19-.61 3.11-1.34 5.48-1.34 2.37 0 4.29.73 5.48 1.34.32.16.52.5.52.88v.78ZM12 12.5c2.21 0 4-1.79 4-4V5c0-.83-.67-1.5-1.5-1.5-.52 0-.98.27-1.25.67-.27-.4-.73-.67-1.25-.67s-.98.27-1.25.67c-.27-.4-.73-.67-1.25-.67C8.67 3.5 8 4.17 8 5v3.5c0 2.21 1.79 4 4 4ZM10 6h4v2.5c0 1.1-.9 2-2 2s-2-.9-2-2V6Z" fill="#202020"/>
</svg><svg fill="none" viewBox="0 0 24 24" id="pinterest" xmlns="http://www.w3.org/2000/svg">
    <path d="M11.995 0C5.361 0 0 5.37 0 11.995c0 5.084 3.16 9.428 7.622 11.176-.109-.948-.198-2.41.039-3.446.217-.938 1.402-5.963 1.402-5.963s-.355-.72-.355-1.777c0-1.668.967-2.912 2.171-2.912 1.027 0 1.52.77 1.52 1.688 0 1.027-.65 2.567-.996 3.998-.287 1.195.602 2.172 1.777 2.172 2.132 0 3.771-2.25 3.771-5.489 0-2.873-2.063-4.877-5.015-4.877-3.416 0-5.42 2.557-5.42 5.203 0 1.027.395 2.132.888 2.735a.357.357 0 0 1 .08.345c-.09.375-.297 1.195-.336 1.363-.05.217-.178.266-.405.158-1.481-.711-2.409-2.903-2.409-4.66 0-3.781 2.745-7.257 7.928-7.257 4.156 0 7.394 2.962 7.394 6.931 0 4.137-2.606 7.464-6.22 7.464-1.214 0-2.36-.632-2.744-1.383l-.75 2.854c-.267 1.046-.998 2.35-1.491 3.149a12.05 12.05 0 0 0 3.554.533C18.629 24 24 18.63 24 12.005 23.99 5.37 18.62 0 11.995 0Z" fill="#fff"/>
</svg><svg fill="none" viewBox="0 0 24 24" id="search" xmlns="http://www.w3.org/2000/svg">
    <path d="M15.755 14.254h-.79l-.28-.27a6.471 6.471 0 0 0 1.57-4.23 6.5 6.5 0 1 0-6.5 6.5c1.61 0 3.09-.59 4.23-1.57l.27.28v.79l5 4.99 1.49-1.49-4.99-5Zm-6 0c-2.49 0-4.5-2.01-4.5-4.5s2.01-4.5 4.5-4.5 4.5 2.01 4.5 4.5-2.01 4.5-4.5 4.5Z" fill="#0C0C0C"/>
</svg><svg fill="none" viewBox="0 0 24 24" id="tiktok" xmlns="http://www.w3.org/2000/svg">
    <path d="M16.043 7.704a9.364 9.364 0 0 0 5.476 1.759V6.359a5.493 5.493 0 0 1-2.908-1.673A5.522 5.522 0 0 1 16.103.961H13.24v15.75a3.329 3.329 0 0 1-3.322 3.324 3.314 3.314 0 0 1-2.645-1.316 3.335 3.335 0 0 1-1.828-2.979 3.328 3.328 0 0 1 4.331-3.178V9.424c-3.94.082-7.11 3.314-7.11 7.288 0 1.983.79 3.782 2.07 5.096a7.21 7.21 0 0 0 4.044 1.233c4.01 0 7.263-3.264 7.263-7.29V7.705Z" fill="#fff"/>
    <path d="M21.518 6.358v-.84a5.46 5.46 0 0 1-2.907-.833 5.487 5.487 0 0 0 2.907 1.673ZM16.102.96a5.702 5.702 0 0 1-.06-.453V0H12.09v15.75a3.328 3.328 0 0 1-3.323 3.324 3.299 3.299 0 0 1-1.495-.356 3.314 3.314 0 0 0 2.645 1.316 3.329 3.329 0 0 0 3.323-3.323V.96h2.862ZM9.776 9.423V8.53a7.308 7.308 0 0 0-.997-.068c-4.011 0-7.263 3.263-7.263 7.289a7.289 7.289 0 0 0 3.22 6.056 7.278 7.278 0 0 1-2.07-5.096c0-3.974 3.169-7.206 7.11-7.288Z" fill="#fff"/>
</svg></svg>